<?xml version="1.0" encoding="utf-8"?>
<!-- Generator: Adobe Illustrator 16.0.0, SVG Export Plug-In . SVG Version: 6.00 Build 0)  -->
<!DOCTYPE svg PUBLIC "-//W3C//DTD SVG 1.1//EN" "http://www.w3.org/Graphics/SVG/1.1/DTD/svg11.dtd">
<svg version="1.1" id="Layer_2" xmlns="http://www.w3.org/2000/svg" xmlns:xlink="http://www.w3.org/1999/xlink" x="0px" y="0px"
	 width="605.838px" height="190.406px" viewBox="0 0 605.838 190.406" enable-background="new 0 0 605.838 190.406"
	 xml:space="preserve">
<g>
	<g>
		<g enable-background="new    ">
			
				<path fill="none" stroke="#2E1A06" stroke-width="29" stroke-linecap="round" stroke-linejoin="round" stroke-miterlimit="10" d="
				M73.608,59.853c-3.295,0.98-5.922,2.383-7.88,4.207c-1.959,1.826-3.696,4.43-5.208,7.813c15.046,2.227,25.643,5.433,31.786,9.616
				c6.144,4.187,9.215,10.15,9.215,17.896c0,4.897-1.382,9.148-4.141,12.755c-2.761,3.605-6.233,6.344-10.417,8.213
				c-8.193,3.473-16.25,5.209-24.173,5.209c-22.527,0-33.79-4.852-33.79-14.558c0-4.896,2.181-9.793,6.544-14.691
				c2.225,3.118,5.586,5.789,10.083,8.014c4.495,2.227,8.881,3.339,13.155,3.339c7.389,0,11.84-3.249,13.355-9.749
				c-13.535-1.604-23.328-4.629-29.382-9.082c-6.056-4.451-9.082-10.729-9.082-18.831c0-6.411,2.114-11.797,6.344-16.16
				c4.228-4.361,9.482-7.412,15.76-9.148c6.277-1.736,13.355-2.604,21.235-2.604c7.88,0,14.378,1.492,19.5,4.474
				c5.119,2.984,7.679,6.611,7.679,10.885c0,4.274-1.492,7.569-4.474,9.884c-2.984,2.315-6.233,3.472-9.75,3.472
				c-3.519,0-6.724-0.935-9.616-2.805C77.458,66.13,75.211,63.415,73.608,59.853z"/>
			
				<path fill="none" stroke="#2E1A06" stroke-width="29" stroke-linecap="round" stroke-linejoin="round" stroke-miterlimit="10" d="
				M124.758,148.8c-5.521,0-9.372-1.358-11.552-4.073c-2.183-2.717-3.272-6.634-3.272-11.753c0-5.121,1.089-15.426,3.272-30.918
				c2.181-15.492,4.294-28.714,6.344-39.666l-7.479-10.684c5.52-3.206,10.284-5.631,14.291-7.279
				c4.006-1.646,7.967-2.471,11.886-2.471c6.411,0,9.616,4.23,9.616,12.688c0,1.158-0.179,3.519-0.534,7.079l1.336,0.667
				c2.581-6.41,6.321-11.419,11.218-15.024c4.896-3.606,10.662-5.409,17.295-5.409c6.632,0,11.907,3.005,15.826,9.015
				c3.917,6.011,5.876,13.469,5.876,22.371c0,11.932-4.186,22.794-12.554,32.587c-4.096,4.809-9.572,8.704-16.427,11.687
				c-6.857,2.984-14.514,4.474-22.971,4.474c-2.583,0-5.966-0.221-10.15-0.668c-0.267,3.116-0.4,6.011-0.4,8.682
				c0,5.697,1.379,9.749,4.14,12.153C135.531,146.617,130.278,148.8,124.758,148.8z M142.254,93.509l-3.072,15.492
				c10.772-0.268,19.386-3.807,25.843-10.618c6.455-6.811,9.683-14.268,9.683-22.37c0-4.185-0.824-7.546-2.471-10.083
				c-1.648-2.538-4.03-3.807-7.145-3.807C154.051,62.123,146.438,72.586,142.254,93.509z"/>
			
				<path fill="none" stroke="#2E1A06" stroke-width="29" stroke-linecap="round" stroke-linejoin="round" stroke-miterlimit="10" d="
				M205.291,109.001c0-3.561,0.912-10.461,2.738-20.701c1.824-10.238,3.716-19.587,5.676-28.047l-6.945-10.685
				c11.129-4.985,18.942-7.479,23.439-7.479c4.495,0,6.745,2.851,6.745,8.547c0,3.118-1.469,9.616-4.407,19.499l1.335,0.668
				c6.411-19.142,14.378-28.714,23.906-28.714c4.361,0,7.7,1.335,10.017,4.007c2.314,2.671,3.473,5.655,3.473,8.948
				c0,4.897-1.826,9.081-5.476,12.554c-3.652,3.473-9.127,5.209-16.427,5.209c-11.041,0-16.561,11.352-16.561,34.057
				c0,5.521,0.935,9.571,2.805,12.153c-5.522,4.361-10.597,6.544-15.226,6.544C210.32,125.562,205.291,120.042,205.291,109.001z"/>
			
				<path fill="none" stroke="#2E1A06" stroke-width="29" stroke-linecap="round" stroke-linejoin="round" stroke-miterlimit="10" d="
				M333.503,52.24c4.984,0,9.281,2.003,12.888,6.01s5.409,9.816,5.409,17.429s-1.336,14.647-4.007,21.102
				c-2.671,6.457-6.189,11.732-10.551,15.826c-4.364,4.097-9.306,7.279-14.825,9.55c-5.521,2.271-11.174,3.405-16.961,3.405
				c-11.666,0-20.88-3.205-27.646-9.616c-6.768-6.41-10.15-14.912-10.15-25.509c0-14.334,4.608-25.977,13.823-34.925
				s20.945-13.422,35.192-13.422c3.205,0,6.41,0.356,9.615,1.068c0.979,2.938,1.514,6.277,1.604,10.017
				C329.763,52.553,331.633,52.24,333.503,52.24z M317.075,70.804c0-2.491,0.602-5.296,1.803-8.414
				c1.202-3.115,3.139-5.609,5.811-7.479c-11.754,2.493-19.856,7.258-24.308,14.29c-3.829,6.056-5.743,12.287-5.743,18.698
				c0,6.41,1.313,11.552,3.939,15.425c2.625,3.873,5.988,5.81,10.083,5.81c9.082,0,15.492-5.92,19.232-17.763
				C320.681,86.92,317.075,80.065,317.075,70.804z"/>
			
				<path fill="none" stroke="#2E1A06" stroke-width="29" stroke-linecap="round" stroke-linejoin="round" stroke-miterlimit="10" d="
				M379.979,125.562c-7.836,0-13.312-1.916-16.428-5.743c-3.117-3.827-4.674-8.658-4.674-14.49c0-5.831,0.979-13.823,2.938-23.974
				c1.958-10.149,2.939-17.495,2.939-22.036s-0.936-8.101-2.805-10.685c8.279-4.361,15.269-6.544,20.968-6.544
				c3.649,0,6.298,0.734,7.946,2.203c1.646,1.47,2.471,3.853,2.471,7.146c0,3.295-1.358,11.375-4.073,24.24
				c-2.718,12.867-4.073,20.813-4.073,23.84c0,3.027,0.845,5.409,2.537,7.145c1.69,1.736,3.917,2.604,6.678,2.604
				c2.759,0,5.697-1.089,8.814-3.271c3.115-2.181,5.653-5.275,7.613-9.282c1.246-7.212,3.693-18.608,7.346-34.19l-8.014-10.685
				c8.992-6.498,17.539-9.749,25.643-9.749c4.006,0,6.879,0.734,8.613,2.203c1.736,1.47,2.605,3.696,2.605,6.678
				c0,2.984-1.625,11.509-4.875,25.576c-3.252,14.069-4.875,24.063-4.875,29.983c0,5.922,1.379,10.083,4.141,12.487
				c-4.988,4.361-10.217,6.544-15.693,6.544c-5.475,0-9.415-1.202-11.819-3.606c-2.403-2.403-3.606-5.563-3.606-9.482l-1.335-0.667
				c-2.938,4.273-7.012,7.636-12.22,10.083C391.532,124.337,385.944,125.562,379.979,125.562z"/>
			
				<path fill="none" stroke="#2E1A06" stroke-width="29" stroke-linecap="round" stroke-linejoin="round" stroke-miterlimit="10" d="
				M454.235,74.01c-0.625-2.492-0.936-4.809-0.936-6.945c0-4.361,1.289-7.656,3.873-9.883c2.582-2.225,5.92-3.339,10.018-3.339
				c0-4.629-1.203-9.66-3.607-15.092c4.361-3.205,8.348-5.63,11.953-7.279c3.607-1.646,7.412-2.471,11.42-2.471
				c4.006,0,6.787,0.734,8.348,2.204c1.557,1.469,2.336,3.719,2.336,6.744c0,3.028-0.623,7.746-1.869,14.157
				c3.561-0.534,7.166-1.29,10.818-2.271c0.621,1.87,0.934,4.273,0.934,7.212s-1.135,5.676-3.404,8.214
				c-2.271,2.537-5.59,3.806-9.951,3.806h-2.002c-3.205,14.514-4.809,25.688-4.809,33.522c0,7.836,1.379,13.312,4.141,16.428
				c-4.988,4.361-10.283,6.544-15.893,6.544s-9.641-1.669-12.088-5.009c-2.449-3.339-3.672-8.524-3.672-15.559
				c0-4.273,1.557-15.492,4.674-33.656C460.956,71.962,457.528,72.854,454.235,74.01z"/>
			
				<path fill="none" stroke="#2E1A06" stroke-width="29" stroke-linecap="round" stroke-linejoin="round" stroke-miterlimit="10" d="
				M551.862,59.853c-3.295,0.98-5.922,2.383-7.879,4.207c-1.959,1.826-3.695,4.43-5.209,7.813
				c15.047,2.227,25.643,5.433,31.787,9.616c6.143,4.187,9.215,10.15,9.215,17.896c0,4.897-1.381,9.148-4.141,12.755
				c-2.76,3.605-6.232,6.344-10.418,8.213c-8.191,3.473-16.248,5.209-24.172,5.209c-22.527,0-33.791-4.852-33.791-14.558
				c0-4.896,2.182-9.793,6.545-14.691c2.225,3.118,5.586,5.789,10.084,8.014c4.494,2.227,8.881,3.339,13.154,3.339
				c7.391,0,11.842-3.249,13.355-9.749c-13.535-1.604-23.328-4.629-29.381-9.082c-6.057-4.451-9.082-10.729-9.082-18.831
				c0-6.411,2.113-11.797,6.344-16.16c4.227-4.361,9.482-7.412,15.76-9.148s13.355-2.604,21.234-2.604
				c7.881,0,14.379,1.492,19.5,4.474c5.119,2.984,7.678,6.611,7.678,10.885c0,4.274-1.49,7.569-4.473,9.884
				c-2.984,2.315-6.234,3.472-9.75,3.472c-3.518,0-6.725-0.935-9.615-2.805C555.714,66.13,553.466,63.415,551.862,59.853z"/>
		</g>
	</g>
	<g enable-background="new    ">
		<path fill="#83D935" d="M73.608,59.853c-3.295,0.98-5.922,2.383-7.88,4.207c-1.959,1.826-3.696,4.43-5.208,7.813
			c15.046,2.227,25.643,5.433,31.786,9.616c6.144,4.187,9.215,10.15,9.215,17.896c0,4.897-1.382,9.148-4.141,12.755
			c-2.761,3.605-6.233,6.344-10.417,8.213c-8.193,3.473-16.25,5.209-24.173,5.209c-22.527,0-33.79-4.852-33.79-14.558
			c0-4.896,2.181-9.793,6.544-14.691c2.225,3.118,5.586,5.789,10.083,8.014c4.495,2.227,8.881,3.339,13.155,3.339
			c7.389,0,11.84-3.249,13.355-9.749c-13.535-1.604-23.328-4.629-29.382-9.082c-6.056-4.451-9.082-10.729-9.082-18.831
			c0-6.411,2.114-11.797,6.344-16.16c4.228-4.361,9.482-7.412,15.76-9.148c6.277-1.736,13.355-2.604,21.235-2.604
			c7.88,0,14.378,1.492,19.5,4.474c5.119,2.984,7.679,6.611,7.679,10.885c0,4.274-1.492,7.569-4.474,9.884
			c-2.984,2.315-6.233,3.472-9.75,3.472c-3.519,0-6.724-0.935-9.616-2.805C77.458,66.13,75.211,63.415,73.608,59.853z"/>
		<path fill="#83D935" d="M124.758,148.8c-5.521,0-9.372-1.358-11.552-4.073c-2.183-2.717-3.272-6.634-3.272-11.753
			c0-5.121,1.089-15.426,3.272-30.918c2.181-15.492,4.294-28.714,6.344-39.666l-7.479-10.684c5.52-3.206,10.284-5.631,14.291-7.279
			c4.006-1.646,7.967-2.471,11.886-2.471c6.411,0,9.616,4.23,9.616,12.688c0,1.158-0.179,3.519-0.534,7.079l1.336,0.667
			c2.581-6.41,6.321-11.419,11.218-15.024c4.896-3.606,10.662-5.409,17.295-5.409c6.632,0,11.907,3.005,15.826,9.015
			c3.917,6.011,5.876,13.469,5.876,22.371c0,11.932-4.186,22.794-12.554,32.587c-4.096,4.809-9.572,8.704-16.427,11.687
			c-6.857,2.984-14.514,4.474-22.971,4.474c-2.583,0-5.966-0.221-10.15-0.668c-0.267,3.116-0.4,6.011-0.4,8.682
			c0,5.697,1.379,9.749,4.14,12.153C135.531,146.617,130.278,148.8,124.758,148.8z M142.254,93.509l-3.072,15.492
			c10.772-0.268,19.386-3.807,25.843-10.618c6.455-6.811,9.683-14.268,9.683-22.37c0-4.185-0.824-7.546-2.471-10.083
			c-1.648-2.538-4.03-3.807-7.145-3.807C154.051,62.123,146.438,72.586,142.254,93.509z"/>
		<path fill="#83D935" d="M205.291,109.001c0-3.561,0.912-10.461,2.738-20.701c1.824-10.238,3.716-19.587,5.676-28.047
			l-6.945-10.685c11.129-4.985,18.942-7.479,23.439-7.479c4.495,0,6.745,2.851,6.745,8.547c0,3.118-1.469,9.616-4.407,19.499
			l1.335,0.668c6.411-19.142,14.378-28.714,23.906-28.714c4.361,0,7.7,1.335,10.017,4.007c2.314,2.671,3.473,5.655,3.473,8.948
			c0,4.897-1.826,9.081-5.476,12.554c-3.652,3.473-9.127,5.209-16.427,5.209c-11.041,0-16.561,11.352-16.561,34.057
			c0,5.521,0.935,9.571,2.805,12.153c-5.522,4.361-10.597,6.544-15.226,6.544C210.32,125.562,205.291,120.042,205.291,109.001z"/>
		<path fill="#83D935" d="M333.503,52.24c4.984,0,9.281,2.003,12.888,6.01s5.409,9.816,5.409,17.429s-1.336,14.647-4.007,21.102
			c-2.671,6.457-6.189,11.732-10.551,15.826c-4.364,4.097-9.306,7.279-14.825,9.55c-5.521,2.271-11.174,3.405-16.961,3.405
			c-11.666,0-20.88-3.205-27.646-9.616c-6.768-6.41-10.15-14.912-10.15-25.509c0-14.334,4.608-25.977,13.823-34.925
			s20.945-13.422,35.192-13.422c3.205,0,6.41,0.356,9.615,1.068c0.979,2.938,1.514,6.277,1.604,10.017
			C329.763,52.553,331.633,52.24,333.503,52.24z M317.075,70.804c0-2.491,0.602-5.296,1.803-8.414
			c1.202-3.115,3.139-5.609,5.811-7.479c-11.754,2.493-19.856,7.258-24.308,14.29c-3.829,6.056-5.743,12.287-5.743,18.698
			c0,6.41,1.313,11.552,3.939,15.425c2.625,3.873,5.988,5.81,10.083,5.81c9.082,0,15.492-5.92,19.232-17.763
			C320.681,86.92,317.075,80.065,317.075,70.804z"/>
		<path fill="#83D935" d="M379.979,125.562c-7.836,0-13.312-1.916-16.428-5.743c-3.117-3.827-4.674-8.658-4.674-14.49
			c0-5.831,0.979-13.823,2.938-23.974c1.958-10.149,2.939-17.495,2.939-22.036s-0.936-8.101-2.805-10.685
			c8.279-4.361,15.269-6.544,20.968-6.544c3.649,0,6.298,0.734,7.946,2.203c1.646,1.47,2.471,3.853,2.471,7.146
			c0,3.295-1.358,11.375-4.073,24.24c-2.718,12.867-4.073,20.813-4.073,23.84c0,3.027,0.845,5.409,2.537,7.145
			c1.69,1.736,3.917,2.604,6.678,2.604c2.759,0,5.697-1.089,8.814-3.271c3.115-2.181,5.653-5.275,7.613-9.282
			c1.246-7.212,3.693-18.608,7.346-34.19l-8.014-10.685c8.992-6.498,17.539-9.749,25.643-9.749c4.006,0,6.879,0.734,8.613,2.203
			c1.736,1.47,2.605,3.696,2.605,6.678c0,2.984-1.625,11.509-4.875,25.576c-3.252,14.069-4.875,24.063-4.875,29.983
			c0,5.922,1.379,10.083,4.141,12.487c-4.988,4.361-10.217,6.544-15.693,6.544c-5.475,0-9.415-1.202-11.819-3.606
			c-2.403-2.403-3.606-5.563-3.606-9.482l-1.335-0.667c-2.938,4.273-7.012,7.636-12.22,10.083
			C391.532,124.337,385.944,125.562,379.979,125.562z"/>
		<path fill="#83D935" d="M454.235,74.01c-0.625-2.492-0.936-4.809-0.936-6.945c0-4.361,1.289-7.656,3.873-9.883
			c2.582-2.225,5.92-3.339,10.018-3.339c0-4.629-1.203-9.66-3.607-15.092c4.361-3.205,8.348-5.63,11.953-7.279
			c3.607-1.646,7.412-2.471,11.42-2.471c4.006,0,6.787,0.734,8.348,2.204c1.557,1.469,2.336,3.719,2.336,6.744
			c0,3.028-0.623,7.746-1.869,14.157c3.561-0.534,7.166-1.29,10.818-2.271c0.621,1.87,0.934,4.273,0.934,7.212
			s-1.135,5.676-3.404,8.214c-2.271,2.537-5.59,3.806-9.951,3.806h-2.002c-3.205,14.514-4.809,25.688-4.809,33.522
			c0,7.836,1.379,13.312,4.141,16.428c-4.988,4.361-10.283,6.544-15.893,6.544s-9.641-1.669-12.088-5.009
			c-2.449-3.339-3.672-8.524-3.672-15.559c0-4.273,1.557-15.492,4.674-33.656C460.956,71.962,457.528,72.854,454.235,74.01z"/>
		<path fill="#83D935" d="M551.862,59.853c-3.295,0.98-5.922,2.383-7.879,4.207c-1.959,1.826-3.695,4.43-5.209,7.813
			c15.047,2.227,25.643,5.433,31.787,9.616c6.143,4.187,9.215,10.15,9.215,17.896c0,4.897-1.381,9.148-4.141,12.755
			c-2.76,3.605-6.232,6.344-10.418,8.213c-8.191,3.473-16.248,5.209-24.172,5.209c-22.527,0-33.791-4.852-33.791-14.558
			c0-4.896,2.182-9.793,6.545-14.691c2.225,3.118,5.586,5.789,10.084,8.014c4.494,2.227,8.881,3.339,13.154,3.339
			c7.391,0,11.842-3.249,13.355-9.749c-13.535-1.604-23.328-4.629-29.381-9.082c-6.057-4.451-9.082-10.729-9.082-18.831
			c0-6.411,2.113-11.797,6.344-16.16c4.227-4.361,9.482-7.412,15.76-9.148s13.355-2.604,21.234-2.604
			c7.881,0,14.379,1.492,19.5,4.474c5.119,2.984,7.678,6.611,7.678,10.885c0,4.274-1.49,7.569-4.473,9.884
			c-2.984,2.315-6.234,3.472-9.75,3.472c-3.518,0-6.725-0.935-9.615-2.805C555.714,66.13,553.466,63.415,551.862,59.853z"/>
	</g>
</g>
<g display="none">
	<g display="inline" enable-background="new    ">
		<path fill="#2E1A06" d="M64.435,72.742c-3.262,0.971-5.862,2.359-7.8,4.165c-1.94,1.807-3.658,4.385-5.156,7.733
			c14.894,2.204,25.383,5.377,31.464,9.519c6.081,4.144,9.122,10.047,9.122,17.715c0,4.848-1.367,9.056-4.098,12.625
			c-2.733,3.569-6.17,6.28-10.312,8.131c-8.11,3.437-16.085,5.155-23.929,5.155c-22.298,0-33.447-4.803-33.447-14.409
			c0-4.847,2.159-9.694,6.478-14.543c2.202,3.087,5.529,5.73,9.981,7.933c4.449,2.204,8.792,3.305,13.022,3.305
			c7.314,0,11.72-3.216,13.22-9.65c-13.398-1.587-23.092-4.582-29.084-8.99c-5.995-4.405-8.99-10.619-8.99-18.64
			c0-6.346,2.093-11.678,6.28-15.997c4.185-4.316,9.386-7.337,15.6-9.056C53,56.02,60.006,55.16,67.806,55.16
			s14.232,1.477,19.301,4.429c5.067,2.953,7.602,6.544,7.602,10.774s-1.477,7.491-4.429,9.782c-2.954,2.293-6.17,3.438-9.651,3.438
			c-3.482,0-6.655-0.926-9.518-2.776C68.246,78.956,66.021,76.269,64.435,72.742z"/>
		<path fill="#2E1A06" d="M115.066,160.788c-5.466,0-9.277-1.345-11.436-4.031c-2.161-2.689-3.239-6.567-3.239-11.634
			c0-5.069,1.078-15.27,3.239-30.604c2.159-15.336,4.251-28.424,6.28-39.265l-7.403-10.575c5.464-3.173,10.18-5.573,14.146-7.205
			c3.966-1.63,7.887-2.446,11.766-2.446c6.346,0,9.519,4.188,9.519,12.56c0,1.146-0.178,3.482-0.529,7.007l1.322,0.66
			c2.555-6.346,6.257-11.303,11.105-14.872c4.846-3.569,10.553-5.354,17.12-5.354c6.564,0,11.787,2.975,15.666,8.924
			c3.877,5.949,5.817,13.332,5.817,22.144c0,11.812-4.144,22.563-12.427,32.257c-4.055,4.76-9.475,8.616-16.261,11.568
			c-6.788,2.953-14.367,4.429-22.739,4.429c-2.557,0-5.905-0.22-10.047-0.661c-0.265,3.084-0.397,5.949-0.397,8.593
			c0,5.64,1.366,9.65,4.098,12.03C125.729,158.628,120.53,160.788,115.066,160.788z M132.385,106.058l-3.041,15.335
			c10.663-0.265,19.19-3.768,25.581-10.51c6.389-6.742,9.584-14.123,9.584-22.144c0-4.142-0.816-7.47-2.446-9.981
			c-1.632-2.512-3.989-3.768-7.073-3.768C144.062,74.99,136.526,85.347,132.385,106.058z"/>
		<path fill="#2E1A06" d="M194.783,121.393c0-3.524,0.903-10.355,2.71-20.491c1.806-10.134,3.679-19.388,5.619-27.763l-6.875-10.575
			c11.016-4.936,18.75-7.403,23.202-7.403c4.449,0,6.676,2.821,6.676,8.461c0,3.086-1.454,9.518-4.362,19.301l1.322,0.661
			c6.346-18.948,14.232-28.423,23.664-28.423c4.317,0,7.622,1.321,9.915,3.966c2.291,2.644,3.438,5.598,3.438,8.857
			c0,4.848-1.808,8.989-5.42,12.427c-3.615,3.438-9.035,5.156-16.261,5.156c-10.929,0-16.393,11.236-16.393,33.711
			c0,5.466,0.925,9.475,2.776,12.03c-5.466,4.317-10.489,6.478-15.071,6.478C199.761,137.785,194.783,132.322,194.783,121.393z"/>
		<path fill="#2E1A06" d="M321.694,65.207c4.936,0,9.188,1.983,12.758,5.949c3.57,3.966,5.354,9.717,5.354,17.252
			s-1.322,14.499-3.966,20.888c-2.645,6.392-6.127,11.613-10.444,15.666c-4.319,4.055-9.21,7.205-14.675,9.452
			c-5.465,2.248-11.061,3.371-16.789,3.371c-11.547,0-20.668-3.173-27.365-9.519c-6.699-6.346-10.047-14.761-10.047-25.25
			c0-14.188,4.561-25.713,13.683-34.57s20.733-13.286,34.835-13.286c3.172,0,6.346,0.353,9.518,1.058
			c0.969,2.908,1.498,6.213,1.587,9.915C317.993,65.517,319.845,65.207,321.694,65.207z M305.435,83.583
			c0-2.467,0.595-5.242,1.785-8.329c1.189-3.084,3.105-5.552,5.75-7.403c-11.634,2.469-19.655,7.185-24.061,14.146
			c-3.791,5.994-5.685,12.162-5.685,18.508s1.299,11.436,3.9,15.27c2.599,3.833,5.926,5.75,9.981,5.75
			c8.989,0,15.335-5.86,19.037-17.582C309.004,99.536,305.435,92.75,305.435,83.583z"/>
		<path fill="#2E1A06" d="M367.7,137.785c-7.756,0-13.176-1.896-16.26-5.685c-3.086-3.788-4.627-8.57-4.627-14.344
			c0-5.771,0.969-13.683,2.908-23.729c1.938-10.048,2.908-17.318,2.908-21.813s-0.926-8.019-2.776-10.576
			c8.196-4.317,15.114-6.478,20.755-6.478c3.613,0,6.234,0.727,7.867,2.181c1.629,1.454,2.445,3.813,2.445,7.073
			c0,3.262-1.345,11.26-4.032,23.994c-2.689,12.737-4.032,20.603-4.032,23.598c0,2.998,0.836,5.354,2.512,7.073
			c1.674,1.719,3.877,2.578,6.61,2.578c2.73,0,5.64-1.078,8.726-3.239c3.084-2.158,5.596-5.222,7.535-9.188
			c1.232-7.14,3.656-18.42,7.271-33.844l-7.933-10.576c8.901-6.433,17.362-9.65,25.382-9.65c3.967,0,6.809,0.727,8.527,2.181
			s2.578,3.658,2.578,6.61c0,2.954-1.609,11.392-4.826,25.316c-3.217,13.927-4.824,23.819-4.824,29.68
			c0,5.862,1.365,9.98,4.098,12.36c-4.938,4.317-10.113,6.478-15.533,6.478s-9.32-1.189-11.699-3.569
			c-2.381-2.379-3.57-5.507-3.57-9.386l-1.322-0.661c-2.908,4.23-6.939,7.558-12.096,9.981
			C379.136,136.573,373.604,137.785,367.7,137.785z"/>
		<path fill="#2E1A06" d="M441.204,86.756c-0.617-2.467-0.926-4.759-0.926-6.874c0-4.317,1.277-7.579,3.834-9.783
			c2.555-2.202,5.859-3.306,9.914-3.306c0-4.581-1.189-9.562-3.568-14.938c4.316-3.173,8.262-5.573,11.832-7.205
			c3.568-1.63,7.336-2.445,11.303-2.445s6.721,0.727,8.264,2.182c1.541,1.454,2.313,3.681,2.313,6.676
			c0,2.997-0.617,7.668-1.852,14.014c3.525-0.529,7.094-1.277,10.709-2.248c0.615,1.852,0.926,4.23,0.926,7.139
			c0,2.909-1.123,5.619-3.371,8.131s-5.531,3.768-9.85,3.768h-1.982c-3.174,14.366-4.76,25.428-4.76,33.183
			c0,7.757,1.365,13.177,4.098,16.261c-4.936,4.317-10.178,6.478-15.73,6.478s-9.541-1.652-11.965-4.957
			c-2.426-3.306-3.635-8.438-3.635-15.401c0-4.23,1.541-15.336,4.627-33.315C447.856,84.729,444.464,85.611,441.204,86.756z"/>
		<path fill="#2E1A06" d="M537.843,72.742c-3.262,0.971-5.863,2.359-7.801,4.165c-1.939,1.807-3.658,4.385-5.156,7.733
			c14.895,2.204,25.383,5.377,31.465,9.519c6.08,4.144,9.121,10.047,9.121,17.715c0,4.848-1.367,9.056-4.098,12.625
			c-2.732,3.569-6.17,6.28-10.313,8.131c-8.109,3.437-16.084,5.155-23.928,5.155c-22.299,0-33.447-4.803-33.447-14.409
			c0-4.847,2.158-9.694,6.479-14.543c2.201,3.087,5.529,5.73,9.98,7.933c4.449,2.204,8.791,3.305,13.021,3.305
			c7.314,0,11.721-3.216,13.221-9.65c-13.398-1.587-23.092-4.582-29.084-8.99c-5.994-4.405-8.99-10.619-8.99-18.64
			c0-6.346,2.094-11.678,6.279-15.997c4.186-4.316,9.387-7.337,15.6-9.056c6.215-1.718,13.221-2.577,21.021-2.577
			c7.799,0,14.232,1.477,19.301,4.429c5.066,2.953,7.602,6.544,7.602,10.774s-1.477,7.491-4.428,9.782
			c-2.955,2.293-6.172,3.438-9.652,3.438c-3.482,0-6.654-0.926-9.518-2.776C541.653,78.956,539.429,76.269,537.843,72.742z"/>
	</g>
</g>
<path id="x" fill="#2E1A06" d="M334.269,60.633c-0.248-0.282-0.5-0.536-0.754-0.771c1.639-1.361,3.172-2.437,3.172-2.437
	s-0.517,0.023-1.793,0.125c-0.285,0.023-0.801,0.596-1.129,0.673c-0.365,0.086,0.879-5.732,1.379-6.381
	c0.229-0.3-2.85-0.266-2.998-0.675c-0.291-0.792-1.527,6.623-1.486,7.248c-2.934-1.675-4.557-0.865-4.557-0.865
	s2.168,1.032,4.098,2.417c-3.477,3.522-3.182,7.708-3.182,7.708s2.735-4.268,4.832-6.338c0.086,0.085,0.174,0.169,0.252,0.255
	c1.883,2.039,4.736,4.825,4.736,4.825S337.56,64.383,334.269,60.633z"/>
<g id="tree">
	<g>
		<path fill="none" stroke="#83D935" stroke-width="2" stroke-linecap="round" stroke-miterlimit="10" d="M317.244,15.992
			c0.177,0.178,0.323,0.457,0.534,0.518c5.553,1.602,8.9,5.836,12.261,10.109c1.44,1.833,4.024,1.638,5.856,2.907
			c1.16,0.805,2.322,1.616,3.133,2.723c1.209,1.651,2.914,3.193,0.921,5.635c-0.802,0.982-0.687,2.758-0.872,4.188
			c-0.383,2.94-1.549,5.228-3.918,7.283c-2.378,2.063-2.674,6.557-3.143,10.236"/>
		<path fill="none" stroke="#83D935" stroke-width="2" stroke-linecap="round" stroke-miterlimit="10" d="M314.583,4.816
			c2.201,0.886,4.282,2.048,6.646,2.548c3.658,0.773,5.871,3.299,7.457,6.499"/>
		<path fill="none" stroke="#83D935" stroke-width="2" stroke-linecap="round" stroke-miterlimit="10" d="M351.569,14.396
			c-3.225-3.231-7.477-4.697-11.441-6.652"/>
		<path fill="none" stroke="#83D935" stroke-width="2" stroke-linecap="round" stroke-miterlimit="10" d="M363.013,8.542
			c-0.92,0.108-1.547,0.734-2.115,1.343c-1.68,1.795-3.724,2.816-6.133,3.184c-2.916,0.445-4.507,2.353-2.695,5.867
			c0.486,0.943,1.396,1.718,1.363,2.91"/>
		<path fill="none" stroke="#83D935" stroke-width="2" stroke-linecap="round" stroke-miterlimit="10" d="M347.045,14.13
			c-4.123,0.158-5.146,3.767-6.854,6.426c-1.364,2.121-2.705,3.325-5.396,2.669c-2.031-0.497-3.771,0.391-5.044,2.081"/>
		<path fill="none" stroke="#83D935" stroke-width="2" stroke-linecap="round" stroke-miterlimit="10" d="M357.158,16.791
			c1.02,0.223,1.987,0.751,1.81,1.854c-0.244,1.488-1.226,2.561-2.874,2.66c-2.812,0.169-4.78,2.341-7.419,3.05
			c-1.428,0.384-2.064,2.304-2.959,3.611"/>
		<path fill="none" stroke="#83D935" stroke-width="2" stroke-linecap="round" stroke-miterlimit="10" d="M354.497,29.83
			c-0.88,0.02-1.589,0.204-2.438,0.726c-3.42,2.096-6.842,4.28-10.867,5.128"/>
		<path fill="none" stroke="#83D935" stroke-width="2" stroke-linecap="round" stroke-miterlimit="10" d="M334.806,9.34
			c-0.088,0-0.221-0.039-0.261,0.005c-2.323,2.624-5.229,4.542-7.959,6.687c-1.065,0.837-1.803,2.091-2.688,3.156"/>
		<path fill="none" stroke="#83D935" stroke-width="2" stroke-linecap="round" stroke-miterlimit="10" d="M330.547,17.057
			c4.007-1.68,6.843,0.461,9.58,2.928"/>
		<path fill="none" stroke="#83D935" stroke-width="2" stroke-linecap="round" stroke-miterlimit="10" d="M347.045,33.022
			c-0.169-1.175-0.979-2.171-0.845-3.464c0.053-0.518-0.124-1.431-0.76-1.553c-2.037-0.392-3.592-2.237-5.846-1.901"/>
	</g>
</g>
<g enable-background="new    ">
	<path fill="#2E1A06" d="M179.108,148.717c3.625,0,6.344,0.419,8.157,1.257c1.813,0.838,2.719,2.17,2.719,3.996
		c0,1.827-0.556,3.213-1.668,4.161c-1.112,0.947-2.383,1.421-3.811,1.421c-1.429,0-2.713-0.363-3.852-1.092
		c-1.14-0.728-1.93-1.695-2.369-2.904c-1.017,0-1.985,0.337-2.905,1.01c-0.92,0.673-1.503,1.545-1.751,2.615
		c5.438,1.318,9.338,2.857,11.7,4.614c2.362,1.758,3.543,4.011,3.543,6.757s-1.243,4.943-3.729,6.591
		c-2.486,1.648-5.836,2.473-10.052,2.473c-4.216,0-7.203-0.577-8.96-1.73c-1.758-1.153-2.637-2.678-2.637-4.573
		c0-1.895,0.59-3.639,1.771-5.231c0.577,1.235,1.682,2.348,3.316,3.337c1.634,0.988,3.248,1.482,4.841,1.482
		c2.938,0,4.806-0.933,5.603-2.801c-4.559-0.604-8.033-1.875-10.423-3.812c-2.389-1.936-3.584-4.277-3.584-7.023
		c0-1.84,0.494-3.481,1.483-4.923c0.989-1.442,2.252-2.548,3.79-3.316C173.313,149.486,176.251,148.717,179.108,148.717z"/>
	<path fill="#2E1A06" d="M195.422,171.17c-0.027-0.55-0.082-1.703-0.165-3.461s-0.158-3.097-0.227-4.017
		c-0.069-0.92-0.22-2.177-0.453-3.77c-0.234-1.593-0.529-2.87-0.886-3.832c-0.879-2.526-2.115-4.339-3.708-5.438
		c2.143-1.291,3.879-1.937,5.211-1.937c1.332,0,2.437,0.221,3.316,0.659c0.879,0.439,1.6,0.969,2.163,1.586
		c0.563,0.618,1.064,1.477,1.503,2.575c0.439,1.099,0.769,2.101,0.989,3.008c0.22,0.906,0.405,2.073,0.556,3.501
		c0.151,1.429,0.248,2.582,0.289,3.461s0.083,2.039,0.124,3.481c0.041,1.441,0.075,2.438,0.103,2.986h0.577
		c1.071-2.554,2.053-5.479,2.946-8.774c0.892-3.296,1.339-5.919,1.339-7.869c0-0.961-0.206-1.854-0.618-2.678
		c2.06-1.291,3.886-1.937,5.479-1.937c3.021,0,4.532,1.594,4.532,4.779c0,1.621-0.618,4.34-1.854,8.157s-2.692,7.512-4.367,11.082
		c-2.17,4.642-4.401,7.992-6.694,10.052c-2.293,2.06-5.239,3.09-8.837,3.09c-1.593,0-3.035-0.316-4.326-0.947
		c-1.565-0.742-2.348-1.992-2.348-3.749c0-1.758,0.673-3.57,2.019-5.438c0.604,0.88,1.415,1.56,2.431,2.039
		c1.016,0.481,2.135,0.722,3.357,0.722s2.375-0.336,3.461-1.01c1.084-0.673,1.86-1.641,2.328-2.904
		c-1.456,0.357-2.788,0.535-3.996,0.535C197.056,175.124,195.642,173.806,195.422,171.17z"/>
	<path fill="#2E1A06" d="M241.892,172.117l0.989-0.659c-1.786-3.433-2.678-7.195-2.678-11.288c0-3.186,0.789-5.892,2.369-8.116
		c1.579-2.225,3.811-3.337,6.695-3.337c1.51,0,2.787,0.262,3.831,0.783c-0.275,1.538-0.769,4.216-1.483,8.033
		c-1.539,8.212-2.307,12.923-2.307,14.131c0,2.609,0.439,4.56,1.318,5.85c-1.209,0.797-2.321,1.346-3.337,1.648
		c-1.017,0.302-2.328,0.453-3.935,0.453c-1.606,0-3.063-0.344-4.367-1.03c-1.305-0.687-2.376-1.6-3.213-2.739
		c-0.838-1.14-1.545-2.548-2.122-4.223c-1.017-2.938-1.635-6.675-1.854-11.206h-0.659c-1.264,5.713-1.895,9.709-1.895,11.988
		c0,2.28,0.412,4.079,1.236,5.396c-1.648,1.236-3.365,1.854-5.15,1.854c-1.786,0-3.063-0.515-3.831-1.545
		c-0.77-1.03-1.154-2.568-1.154-4.614s0.865-7.848,2.596-17.406l-2.184-4.407c3.076-1.978,5.822-2.967,8.24-2.967
		c2.416,0,4.243,0.419,5.479,1.257s2.101,2.066,2.595,3.688c0.495,1.62,0.858,3.33,1.092,5.129s0.645,3.962,1.236,6.488
		C239.99,167.806,240.821,170.085,241.892,172.117z"/>
	<path fill="#2E1A06" d="M254.458,155.844c0-2.225,0.577-3.899,1.73-5.025c1.154-1.126,2.534-1.689,4.141-1.689
		c1.606,0,3.796,0.275,6.571,0.824c2.774,0.55,4.861,0.838,6.262,0.865c2.334-0.439,4.559-0.975,6.674-1.607
		c0.219,0.715,0.33,1.607,0.33,2.679c0,2.225-0.639,3.899-1.916,5.025c-1.277,1.127-2.905,1.689-4.882,1.689
		c-0.495,0-1.154-0.027-1.978-0.083c-1.511,7.938-2.266,12.374-2.266,13.308c0,2.664,0.412,4.655,1.236,5.973
		c-1.647,1.236-3.364,1.854-5.149,1.854c-1.786,0-3.063-0.515-3.832-1.545c-0.769-1.03-1.153-2.568-1.153-4.614
		s0.796-7.504,2.389-16.376c-3.104,0.412-5.713,0.88-7.827,1.4C254.567,157.836,254.458,156.943,254.458,155.844z"/>
	<path fill="#2E1A06" d="M302.946,154.773l-0.33,9.805c0,3.378,0.281,6.221,0.845,8.527c0.563,2.308,1.612,3.9,3.151,4.779
		c-1.895,1.181-3.818,1.771-5.768,1.771c-3.434,0-5.548-2.773-6.344-8.322h-8.404c-0.522,1.786-0.783,3.151-0.783,4.1
		c0,0.947,0.109,1.709,0.33,2.286c-2.033,1.291-3.846,1.937-5.438,1.937c-2.445,0-3.667-1.483-3.667-4.449
		c0-1.483,0.459-3.351,1.38-5.604c0.92-2.251,2.143-4.833,3.667-7.744c1.524-2.911,2.493-4.834,2.905-5.769
		c-0.303-1.482-0.646-2.938-1.03-4.366c1.428-0.989,2.808-1.737,4.141-2.245c1.332-0.508,2.773-0.763,4.326-0.763
		c1.551,0,2.629,0.344,3.234,1.03c1.565-0.687,2.856-1.03,3.873-1.03c1.016,0,1.771,0.165,2.266,0.494
		c0.495,0.33,0.851,0.811,1.071,1.442C302.753,151.752,302.946,153.125,302.946,154.773z M294.665,155.721h-1.318
		c-2.472,4.778-4.312,8.542-5.52,11.288h6.385C294.212,164.016,294.363,160.252,294.665,155.721z"/>
	<path fill="#2E1A06" d="M330.054,179.615c-1.841,0-3.297-0.481-4.367-1.442c-1.071-0.961-2.377-2.884-3.914-5.768l-1.73-3.213
		c-1.867,2.225-2.801,4.229-2.801,6.015c0,0.879,0.123,1.634,0.37,2.266c-2.087,1.428-4.12,2.143-6.097,2.143
		c-1.457,0-2.533-0.371-3.234-1.112c-0.7-0.742-1.051-1.662-1.051-2.761c0-3.268,3.281-7.306,9.847-12.111l-3.667-6.922
		c-1.428-2.746-3.104-4.435-5.025-5.067c1.867-1.949,4.078-2.925,6.633-2.925c1.84,0,3.295,0.481,4.366,1.442
		s2.376,2.884,3.914,5.768l1.688,3.213c1.922-2.196,2.885-4.202,2.885-6.015c0-0.824-0.139-1.579-0.412-2.266
		c2.114-1.428,4.16-2.143,6.139-2.143c1.455,0,2.533,0.371,3.233,1.112c0.7,0.742,1.05,1.662,1.05,2.761
		c0,3.46-3.268,7.58-9.805,12.358l3.584,6.675c1.428,2.746,3.104,4.436,5.027,5.066C334.817,178.64,332.607,179.615,330.054,179.615
		z"/>
	<path fill="#2E1A06" d="M350.569,155.844c0-2.225,0.576-3.899,1.729-5.025s2.534-1.689,4.141-1.689s3.796,0.275,6.571,0.824
		c2.773,0.55,4.861,0.838,6.262,0.865c2.334-0.439,4.559-0.975,6.674-1.607c0.219,0.715,0.33,1.607,0.33,2.679
		c0,2.225-0.639,3.899-1.916,5.025c-1.277,1.127-2.904,1.689-4.882,1.689c-0.495,0-1.153-0.027-1.978-0.083
		c-1.511,7.938-2.266,12.374-2.266,13.308c0,2.664,0.412,4.655,1.235,5.973c-1.647,1.236-3.364,1.854-5.149,1.854
		s-3.063-0.515-3.832-1.545c-0.769-1.03-1.152-2.568-1.152-4.614s0.796-7.504,2.389-16.376c-3.104,0.412-5.713,0.88-7.827,1.4
		C350.679,157.836,350.569,156.943,350.569,155.844z"/>
	<path fill="#2E1A06" d="M392.136,172.858l-1.441-4.161c-1.429,0-2.871-0.219-4.326-0.659c-0.303,1.759-0.453,3.021-0.453,3.791
		c0,2.664,0.412,4.655,1.236,5.973c-1.648,1.236-3.365,1.854-5.15,1.854s-3.063-0.515-3.83-1.545
		c-0.77-1.03-1.154-2.568-1.154-4.614s0.865-7.848,2.596-17.406l-2.184-4.407c3.076-1.978,5.904-2.967,8.486-2.967
		c1.978,0,3.502,0.412,4.573,1.236c2.06-0.824,3.913-1.236,5.562-1.236c2.526,0,4.531,0.852,6.015,2.555s2.225,3.749,2.225,6.138
		c0,1.786-0.453,3.509-1.359,5.171s-2.239,3.015-3.996,4.058c0.934,2.664,1.983,4.958,3.151,6.88c1.168,1.923,2.328,3.2,3.481,3.831
		c-0.577,0.604-1.462,1.134-2.657,1.587s-2.273,0.68-3.234,0.68c-1.867,0-3.364-0.474-4.49-1.422
		C394.058,177.246,393.042,175.468,392.136,172.858z M388.181,163.548c2.197,0,3.907-0.563,5.129-1.688
		c1.223-1.126,1.834-2.335,1.834-3.626c0-1.29-0.357-2.32-1.071-3.09c-0.714-0.769-1.729-1.153-3.048-1.153
		c-0.715,0-1.43,0.097-2.143,0.288c-0.879,5.246-1.429,8.322-1.648,9.229C387.425,163.534,387.741,163.548,388.181,163.548z"/>
	<path fill="#2E1A06" d="M411.951,179.656c-1.62,0-2.815-0.515-3.584-1.545c-0.77-1.03-1.153-2.568-1.153-4.614
		s0.865-7.848,2.596-17.406l-2.184-4.407c3.104-2.005,5.932-3.008,8.486-3.008c1.62,0,2.622,0.77,3.008,2.307
		c3.103-0.082,6.975-0.782,11.617-2.101c0.219,0.906,0.33,1.799,0.33,2.678c0,2.225-0.736,3.9-2.205,5.026s-3.357,1.688-5.664,1.688
		c-1.566,0-3.104-0.329-4.614-0.988c-0.22,1.235-0.604,3.255-1.153,6.056c1.016,0.192,1.881,0.289,2.596,0.289
		c1.125-0.22,2.361-0.536,3.707-0.948c0.137,0.468,0.206,1.229,0.206,2.287s-0.426,1.901-1.276,2.533
		c-0.852,0.632-1.807,0.947-2.863,0.947c-1.059,0-2.137-0.123-3.234-0.37c-0.303,1.729-0.453,3.364-0.453,4.902h6.674
		c2.087-0.302,4.188-0.838,6.303-1.607c0.165,0.495,0.248,1.168,0.248,2.02c0,1.62-0.475,3.063-1.422,4.325s-2.26,1.896-3.934,1.896
		c-0.88,0-2.164-0.172-3.853-0.516s-2.946-0.556-3.77-0.639C415.041,179.258,413.571,179.656,411.951,179.656z"/>
	<path fill="#2E1A06" d="M437.452,179.656c-1.621,0-2.815-0.515-3.584-1.545c-0.77-1.03-1.154-2.568-1.154-4.614
		s0.865-7.848,2.596-17.406l-2.184-4.407c3.104-2.005,5.934-3.008,8.487-3.008c1.62,0,2.622,0.77,3.007,2.307
		c3.104-0.082,6.977-0.782,11.618-2.101c0.22,0.906,0.329,1.799,0.329,2.678c0,2.225-0.734,3.9-2.203,5.026
		c-1.471,1.126-3.358,1.688-5.665,1.688c-1.565,0-3.104-0.329-4.614-0.988c-0.221,1.235-0.604,3.255-1.153,6.056
		c1.016,0.192,1.881,0.289,2.595,0.289c1.127-0.22,2.362-0.536,3.708-0.948c0.138,0.468,0.206,1.229,0.206,2.287
		s-0.426,1.901-1.277,2.533s-1.806,0.947-2.863,0.947c-1.057,0-2.135-0.123-3.233-0.37c-0.303,1.729-0.453,3.364-0.453,4.902h6.674
		c2.087-0.302,4.188-0.838,6.304-1.607c0.164,0.495,0.246,1.168,0.246,2.02c0,1.62-0.473,3.063-1.421,4.325
		c-0.947,1.263-2.259,1.896-3.935,1.896c-0.879,0-2.162-0.172-3.852-0.516s-2.945-0.556-3.77-0.639
		C440.542,179.258,439.072,179.656,437.452,179.656z"/>
	<path fill="#2E1A06" d="M468.638,155.844c0-2.225,0.576-3.899,1.729-5.025s2.534-1.689,4.141-1.689s3.796,0.275,6.571,0.824
		c2.773,0.55,4.861,0.838,6.262,0.865c2.334-0.439,4.559-0.975,6.674-1.607c0.219,0.715,0.33,1.607,0.33,2.679
		c0,2.225-0.639,3.899-1.916,5.025c-1.277,1.127-2.904,1.689-4.882,1.689c-0.495,0-1.153-0.027-1.978-0.083
		c-1.511,7.938-2.266,12.374-2.266,13.308c0,2.664,0.412,4.655,1.235,5.973c-1.647,1.236-3.364,1.854-5.149,1.854
		s-3.063-0.515-3.832-1.545c-0.769-1.03-1.152-2.568-1.152-4.614s0.796-7.504,2.389-16.376c-3.104,0.412-5.713,0.88-7.827,1.4
		C468.747,157.836,468.638,156.943,468.638,155.844z"/>
	<path fill="#2E1A06" d="M493.644,165.979c0-5.218,1.455-9.399,4.367-12.545c2.91-3.144,6.893-4.717,11.947-4.717
		c1.619,0,2.78,0.323,3.48,0.969s1.051,1.641,1.051,2.986c0,0.192-0.027,0.563-0.082,1.112c1.016-0.824,2.142-1.236,3.377-1.236
		c1.676,0,3.111,0.749,4.306,2.246s1.792,3.66,1.792,6.488c0,2.829-0.453,5.425-1.359,7.786c-0.906,2.362-2.107,4.299-3.605,5.809
		c-1.496,1.511-3.199,2.678-5.107,3.502c-1.91,0.824-3.88,1.236-5.912,1.236c-4.395,0-7.869-1.257-10.423-3.77
		C494.921,173.332,493.644,170.044,493.644,165.979z M514.2,167.915c-1.758-2.143-2.637-4.449-2.637-6.921
		c0-2.473,0.55-4.463,1.648-5.974c-0.494-0.083-0.988-0.124-1.482-0.124c-1.951,0-3.641,0.591-5.068,1.771
		c-2.691,2.197-4.037,5.246-4.037,9.146c0,2.225,0.494,4.079,1.483,5.562c0.989,1.483,2.362,2.226,4.12,2.226
		c1.345,0,2.574-0.529,3.687-1.587C513.026,170.957,513.788,169.591,514.2,167.915z"/>
	<path fill="#2E1A06" d="M525.529,165.979c0-5.218,1.456-9.399,4.367-12.545c2.911-3.144,6.894-4.717,11.947-4.717
		c1.62,0,2.78,0.323,3.481,0.969c0.699,0.646,1.05,1.641,1.05,2.986c0,0.192-0.027,0.563-0.082,1.112
		c1.016-0.824,2.142-1.236,3.378-1.236c1.675,0,3.11,0.749,4.305,2.246c1.195,1.497,1.793,3.66,1.793,6.488
		c0,2.829-0.453,5.425-1.359,7.786c-0.906,2.362-2.108,4.299-3.605,5.809c-1.497,1.511-3.199,2.678-5.108,3.502
		s-3.88,1.236-5.911,1.236c-4.395,0-7.869-1.257-10.424-3.77C526.807,173.332,525.529,170.044,525.529,165.979z M546.087,167.915
		c-1.758-2.143-2.637-4.449-2.637-6.921c0-2.473,0.549-4.463,1.648-5.974c-0.495-0.083-0.989-0.124-1.483-0.124
		c-1.95,0-3.64,0.591-5.067,1.771c-2.691,2.197-4.037,5.246-4.037,9.146c0,2.225,0.494,4.079,1.482,5.562
		c0.989,1.483,2.362,2.226,4.12,2.226c1.345,0,2.575-0.529,3.687-1.587C544.913,170.957,545.675,169.591,546.087,167.915z"/>
	<path fill="#2E1A06" d="M560.011,178.111c-0.77-1.03-1.153-2.568-1.153-4.614s0.865-7.848,2.596-17.406l-2.184-4.407
		c3.104-2.005,5.933-3.008,8.486-3.008c2.115,0,3.173,1.291,3.173,3.872c0,0.77-0.529,3.983-1.587,9.641
		c-1.058,5.658-1.586,9.256-1.586,10.794h4.449c2.087-0.302,4.188-0.838,6.304-1.607c0.165,0.495,0.247,1.168,0.247,2.02
		c0,1.62-0.474,3.063-1.421,4.325c-0.948,1.263-2.26,1.896-3.935,1.896c-1.127,0-3.076-0.303-5.851-0.906
		c-1.153,0.631-2.376,0.947-3.666,0.947C562.07,179.656,560.78,179.142,560.011,178.111z"/>
</g>
</svg>
